<svg width="1000" height="1000" viewBox="0 0 1000 1000" xmlns="http://www.w3.org/2000/svg"><defs/><path fill="#777777" transform="matrix(0.16985511503702383 0 0 0.16985511503702383 5.146898286770453 -7.354333239021463)" d="M 987.40388336645 3090.93295384529 C 985.10388336645 3090.63295384529 982.80388336645 3090.33295384529 980.50388336645 3090.03295384529 C 947.70388336645 3086.53295384529 914.40388336645 3093.23295384529 884.80388336645 3107.53295384529 C 896.50388336645 3127.93295384529 911.00388336645 3146.53295384529 927.80388336645 3162.73295384529 C 939.10388336645 3143.03295384529 952.50388336645 3125.13295384529 967.60388336645 3109.43295384529 C 974.00388336645 3102.83295384529 980.60388336645 3096.73295384529 987.40388336645 3090.93295384529 Z"/><path fill="#777777" transform="matrix(0.16985511503702383 0 0 0.16985511503702383 5.146898286770453 -7.354333239021463)" d="M 1248.20388336645 3087.33295384529 L 1250.90388336645 3098.93295384529 C 1241.70388336645 3108.13295384529 1228.00388336645 3109.33295384529 1217.60388336645 3103.63295384529 C 1196.70388336645 3114.03295384529 1175.30388336645 3122.73295384529 1152.20388336645 3125.13295384529 C 1125.70388336645 3127.93295384529 1099.80388336645 3122.23295384529 1074.10388336645 3114.63295384529 L 1062.80388336645 3125.93295384529 L 1052.90388336645 3108.13295384529 C 1039.60388336645 3103.93295384529 1026.40388336645 3099.63295384529 1012.90388336645 3096.33295384529 C 1006.80388336645 3107.03295384529 1001.60388336645 3117.93295384529 997.40388336645 3129.03295384529 C 988.10388336645 3153.33295384529 983.40388336645 3178.43295384529 982.80388336645 3202.73295384529 C 1016.80388336645 3220.73295384529 1055.60388336645 3230.93295384529 1096.70388336645 3230.93295384529 C 1207.60388336645 3230.93295384529 1301.20388336645 3156.83295384529 1330.80388336645 3055.53295384529 C 1311.20388336645 3058.43295384529 1291.50388336645 3065.43295384529 1273.90388336645 3074.03295384529 C 1265.30388336645 3078.03295384529 1256.70388336645 3082.63295384529 1248.20388336645 3087.33295384529 Z"/><path fill="#ffffff" transform="matrix(0.16985511503702383 0 0 0.16985511503702383 5.146898286770453 -7.354333239021463)" d="M 1152.20388336645 3014.03295384529 C 1156.30388336645 3013.63295384529 1160.40388336645 3012.93295384529 1164.50388336645 3012.13295384529 L 1150.10388336645 2984.73295384529 L 1121.10388336645 3013.73295384529 C 1131.40388336645 3014.83295384529 1141.70388336645 3015.13295384529 1152.20388336645 3014.03295384529 Z"/><g opacity="0.18" transform="matrix(0.16985511503702383 0 0 0.16985511503702383 5.146898286770453 -7.354333239021463)"><path d="M 1152.20388336645 3014.03295384529 C 1156.30388336645 3013.63295384529 1160.40388336645 3012.93295384529 1164.50388336645 3012.13295384529 L 1150.10388336645 2984.73295384529 L 1121.10388336645 3013.73295384529 C 1131.40388336645 3014.83295384529 1141.70388336645 3015.13295384529 1152.20388336645 3014.03295384529 Z"/></g><path fill="#ffffff" transform="matrix(0.16985511503702383 0 0 0.16985511503702383 5.146898286770453 -7.354333239021463)" d="M 980.50388336645 2979.03295384529 C 1006.20388336645 2981.73295384529 1031.30388336645 2990.03295384529 1056.30388336645 2997.93295384529 L 1109.80388336645 2944.43295384529 L 1002.40388336645 2888.23295384529 C 994.50388336645 2884.13295384529 989.60388336645 2876.93295384529 988.00388336645 2869.03295384529 C 985.50388336645 2868.63295384529 983.00388336645 2868.33295384529 980.40388336645 2868.03295384529 C 942.80388336645 2864.03295384529 904.40388336645 2873.33295384529 871.80388336645 2892.43295384529 C 859.60388336645 2921.43295384529 852.80388336645 2953.43295384529 852.80388336645 2986.93295384529 C 852.80388336645 2996.43295384529 853.40388336645 3005.83295384529 854.40388336645 3015.03295384529 C 890.40388336645 2988.23295384529 936.00388336645 2974.33295384529 980.50388336645 2979.03295384529 Z"/><g opacity="0.18" transform="matrix(0.16985511503702383 0 0 0.16985511503702383 5.146898286770453 -7.354333239021463)"><path d="M 980.50388336645 2979.03295384529 C 1006.20388336645 2981.73295384529 1031.30388336645 2990.03295384529 1056.30388336645 2997.93295384529 L 1109.80388336645 2944.43295384529 L 1002.40388336645 2888.23295384529 C 994.50388336645 2884.13295384529 989.60388336645 2876.93295384529 988.00388336645 2869.03295384529 C 985.50388336645 2868.63295384529 983.00388336645 2868.33295384529 980.40388336645 2868.03295384529 C 942.80388336645 2864.03295384529 904.40388336645 2873.33295384529 871.80388336645 2892.43295384529 C 859.60388336645 2921.43295384529 852.80388336645 2953.43295384529 852.80388336645 2986.93295384529 C 852.80388336645 2996.43295384529 853.40388336645 3005.83295384529 854.40388336645 3015.03295384529 C 890.40388336645 2988.23295384529 936.00388336645 2974.33295384529 980.50388336645 2979.03295384529 Z"/></g><path fill="#ffffff" transform="matrix(0.16985511503702383 0 0 0.16985511503702383 5.146898286770453 -7.354333239021463)" d="M 1283.80388336645 2851.13295384529 L 1210.60388336645 2924.33295384529 L 1225.40388336645 2988.53295384529 C 1241.60388336645 2980.03295384529 1257.70388336645 2970.73295384529 1274.00388336645 2962.73295384529 C 1293.40388336645 2953.23295384529 1315.30388336645 2945.73295384529 1336.80388336645 2943.53295384529 C 1330.20388336645 2906.53295384529 1315.10388336645 2872.43295384529 1293.80388336645 2843.23295384529 C 1291.90388336645 2843.93295384529 1290.00388336645 2844.73295384529 1288.20388336645 2845.53295384529 C 1286.90388336645 2847.53295384529 1285.50388336645 2849.33295384529 1283.80388336645 2851.13295384529 Z"/><g opacity="0.18" transform="matrix(0.16985511503702383 0 0 0.16985511503702383 5.146898286770453 -7.354333239021463)"><path d="M 1283.80388336645 2851.13295384529 L 1210.60388336645 2924.33295384529 L 1225.40388336645 2988.53295384529 C 1241.60388336645 2980.03295384529 1257.70388336645 2970.73295384529 1274.00388336645 2962.73295384529 C 1293.40388336645 2953.23295384529 1315.30388336645 2945.73295384529 1336.80388336645 2943.53295384529 C 1330.20388336645 2906.53295384529 1315.10388336645 2872.43295384529 1293.80388336645 2843.23295384529 C 1291.90388336645 2843.93295384529 1290.00388336645 2844.73295384529 1288.20388336645 2845.53295384529 C 1286.90388336645 2847.53295384529 1285.50388336645 2849.33295384529 1283.80388336645 2851.13295384529 Z"/></g><path fill="#ffffff" transform="matrix(0.16985511503702383 0 0 0.16985511503702383 5.146898286770453 -7.354333239021463)" d="M 1293.80388336645 2843.23295384529 C 1292.90388336645 2841.93295384529 1291.90388336645 2840.73295384529 1291.00388336645 2839.53295384529 C 1290.30388336645 2841.63295384529 1289.30388336645 2843.63295384529 1288.20388336645 2845.53295384529 C 1290.00388336645 2844.73295384529 1291.80388336645 2843.93295384529 1293.80388336645 2843.23295384529 Z"/><g opacity="0.28" transform="matrix(0.16985511503702383 0 0 0.16985511503702383 5.146898286770453 -7.354333239021463)"><path d="M 1293.80388336645 2843.23295384529 C 1292.90388336645 2841.93295384529 1291.90388336645 2840.73295384529 1291.00388336645 2839.53295384529 C 1290.30388336645 2841.63295384529 1289.30388336645 2843.63295384529 1288.20388336645 2845.53295384529 C 1290.00388336645 2844.73295384529 1291.80388336645 2843.93295384529 1293.80388336645 2843.23295384529 Z"/></g><path fill="#ffffff" transform="matrix(0.16985511503702383 0 0 0.16985511503702383 5.146898286770453 -7.354333239021463)" d="M 980.50388336645 2868.03295384529 C 983.00388336645 2868.33295384529 985.50388336645 2868.63295384529 988.10388336645 2869.03295384529 C 986.30388336645 2860.33295384529 988.70388336645 2850.73295384529 995.70388336645 2843.73295384529 L 995.70388336645 2843.73295384529 L 1170.30388336645 2884.03295384529 L 1244.20388336645 2810.13295384529 C 1247.80388336645 2806.53295384529 1252.10388336645 2804.13295384529 1256.70388336645 2802.83295384529 C 1213.80388336645 2765.63295384529 1157.90388336645 2743.03295384529 1096.80388336645 2743.03295384529 C 995.60388336645 2743.03295384529 908.80388336645 2804.73295384529 871.90388336645 2892.43295384529 C 904.50388336645 2873.33295384529 942.90388336645 2864.03295384529 980.50388336645 2868.03295384529 Z"/><g opacity="0.28" transform="matrix(0.16985511503702383 0 0 0.16985511503702383 5.146898286770453 -7.354333239021463)"><path d="M 980.50388336645 2868.03295384529 C 983.00388336645 2868.33295384529 985.50388336645 2868.63295384529 988.10388336645 2869.03295384529 C 986.30388336645 2860.33295384529 988.70388336645 2850.73295384529 995.70388336645 2843.73295384529 L 995.70388336645 2843.73295384529 L 1170.30388336645 2884.03295384529 L 1244.20388336645 2810.13295384529 C 1247.80388336645 2806.53295384529 1252.10388336645 2804.13295384529 1256.70388336645 2802.83295384529 C 1213.80388336645 2765.63295384529 1157.90388336645 2743.03295384529 1096.80388336645 2743.03295384529 C 995.60388336645 2743.03295384529 908.80388336645 2804.73295384529 871.90388336645 2892.43295384529 C 904.50388336645 2873.33295384529 942.90388336645 2864.03295384529 980.50388336645 2868.03295384529 Z"/></g><path fill="#ffffff" transform="matrix(0.16985511503702383 0 0 0.16985511503702383 5.146898286770453 -7.354333239021463)" d="M 980.50388336645 3090.03295384529 C 982.80388336645 3090.23295384529 985.10388336645 3090.53295384529 987.40388336645 3090.93295384529 C 999.70388336645 3080.53295384529 1012.70388336645 3071.43295384529 1026.30388336645 3063.63295384529 L 968.80388336645 3031.73295384529 L 988.90388336645 3011.63295384529 L 1035.90388336645 3018.33295384529 L 1056.20388336645 2998.03295384529 C 1031.20388336645 2990.13295384529 1006.20388336645 2981.83295384529 980.40388336645 2979.13295384529 C 935.90388336645 2974.43295384529 890.20388336645 2988.33295384529 854.40388336645 3015.03295384529 C 858.20388336645 3048.43295384529 868.80388336645 3079.73295384529 884.70388336645 3107.63295384529 C 914.50388336645 3093.23295384529 947.80388336645 3086.53295384529 980.50388336645 3090.03295384529 Z"/><path fill="#ffffff" transform="matrix(0.16985511503702383 0 0 0.16985511503702383 5.146898286770453 -7.354333239021463)" d="M 1206.40388336645 3092.03295384529 L 1164.50388336645 3012.13295384529 C 1160.50388336645 3012.93295384529 1156.40388336645 3013.53295384529 1152.20388336645 3014.03295384529 C 1141.70388336645 3015.13295384529 1131.40388336645 3014.83295384529 1121.10388336645 3013.73295384529 L 1076.20388336645 3058.63295384529 L 1082.90388336645 3105.63295384529 L 1074.00388336645 3114.53295384529 C 1099.70388336645 3122.13295384529 1125.50388336645 3127.83295384529 1152.10388336645 3125.03295384529 C 1175.20388336645 3122.63295384529 1196.60388336645 3114.03295384529 1217.50388336645 3103.53295384529 C 1213.00388336645 3101.03295384529 1209.00388336645 3097.13295384529 1206.40388336645 3092.03295384529 Z"/><path fill="#ffffff" transform="matrix(0.16985511503702383 0 0 0.16985511503702383 5.146898286770453 -7.354333239021463)" d="M 1013.00388336645 3096.03295384529 C 1026.40388336645 3099.43295384529 1039.70388336645 3103.63295384529 1053.00388336645 3107.83295384529 L 1031.20388336645 3068.63295384529 C 1024.40388336645 3077.53295384529 1018.30388336645 3086.63295384529 1013.00388336645 3096.03295384529 Z"/><path fill="#ffffff" transform="matrix(0.16985511503702383 0 0 0.16985511503702383 5.146898286770453 -7.354333239021463)" d="M 1336.80388336645 2943.53295384529 C 1315.30388336645 2945.83295384529 1293.40388336645 2953.33295384529 1274.00388336645 2962.73295384529 C 1257.70388336645 2970.73295384529 1241.70388336645 2980.03295384529 1225.40388336645 2988.53295384529 L 1248.20388336645 3087.23295384529 C 1256.80388336645 3082.53295384529 1265.30388336645 3077.93295384529 1274.00388336645 3073.73295384529 C 1291.60388336645 3065.13295384529 1311.30388336645 3058.13295384529 1330.90388336645 3055.23295384529 C 1337.20388336645 3033.53295384529 1340.60388336645 3010.63295384529 1340.60388336645 2986.83295384529 C 1340.60388336645 2972.13295384529 1339.30388336645 2957.63295384529 1336.80388336645 2943.53295384529 Z"/><path fill="#ffffff" transform="matrix(0.16985511503702383 0 0 0.16985511503702383 5.146898286770453 -7.354333239021463)" d="M 1062.80388336645 3125.73295384529 L 1074.10388336645 3114.43295384529 C 1067.00388336645 3112.33295384529 1060.00388336645 3110.13295384529 1053.00388336645 3107.93295384529 L 1062.80388336645 3125.73295384529 Z"/><path id="text" fill="#ffffff" transform="matrix(0.6671199657599491 0 0 0.6671199657599491 110.59529456951746 30.457797802793397)" d="M 230.91343473522 733.93073182717 L 215.26543473522 733.93073182717 L 237.53743473522 673.73873182717 L 252.99343473522 673.73873182717 L 274.68943473522 733.93073182717 L 259.13743473522 733.93073182717 L 255.96943473522 723.85073182717 L 234.08143473522 723.85073182717 L 230.91343473522 733.93073182717 Z M 244.92943473522 688.52273182717 C 244.41743473522 690.31473182717 243.85743473522 692.21873182717 243.24943473522 694.23473182717 C 242.64143473522 696.25073182717 241.63343473522 699.53073182717 240.22543473522 704.07473182717 L 237.72943473522 712.04273182717 L 252.22543473522 712.04273182717 L 249.72943473522 704.07473182717 C 248.89743473522 701.64273182717 248.06543473522 699.06673182717 247.23343473522 696.34673182717 C 246.40143473522 693.62673182717 245.63343473522 691.01873182717 244.92943473522 688.52273182717 Z M 305.02543473522 733.93073182717 L 284.00143473522 733.93073182717 L 284.00143473522 673.73873182717 L 305.02543473522 673.73873182717 C 311.16943473522 673.73873182717 316.04943473522 674.25073182717 319.66543473522 675.27473182717 C 323.28143473522 676.29873182717 326.17743473522 677.93073182717 328.35343473522 680.17073182717 C 330.52943473522 682.41073182717 332.11343473522 685.43473182717 333.10543473522 689.24273182717 C 334.09743473522 693.05073182717 334.59343473522 697.89873182717 334.59343473522 703.78673182717 C 334.59343473522 714.21873182717 332.25743473522 721.85073182717 327.58543473522 726.68273182717 C 322.91343473522 731.51473182717 315.39343473522 733.93073182717 305.02543473522 733.93073182717 Z M 316.83343473522 691.01873182717 C 315.93743473522 689.67473182717 314.62543473522 688.69873182717 312.89743473522 688.09073182717 C 311.16943473522 687.48273182717 308.54543473522 687.17873182717 305.02543473522 687.17873182717 L 298.88143473522 687.17873182717 L 298.88143473522 720.01073182717 L 305.02543473522 720.01073182717 C 308.48143473522 720.01073182717 311.07343473522 719.72273182717 312.80143473522 719.14673182717 C 314.52943473522 718.57073182717 315.87343473522 717.64273182717 316.83343473522 716.36273182717 C 317.66543473522 715.14673182717 318.27343473522 713.53073182717 318.65743473522 711.51473182717 C 319.04143473522 709.49873182717 319.23343473522 706.92273182717 319.23343473522 703.78673182717 C 319.23343473522 700.58673182717 319.04143473522 697.97873182717 318.65743473522 695.96273182717 C 318.27343473522 693.94673182717 317.66543473522 692.29873182717 316.83343473522 691.01873182717 Z M 360.60943473522 733.93073182717 L 339.77743473522 673.73873182717 L 356.38543473522 673.73873182717 L 365.31343473522 703.49873182717 C 365.88943473522 705.48273182717 366.59343473522 708.12273182717 367.42543473522 711.41873182717 C 368.25743473522 714.71473182717 369.05743473522 717.99473182717 369.82543473522 721.25873182717 C 371.23343473522 715.43473182717 372.24143473522 711.33873182717 372.84943473522 708.97073182717 C 373.45743473522 706.60273182717 373.92143473522 704.81073182717 374.24143473522 703.59473182717 L 383.07343473522 673.73873182717 L 399.20143473522 673.73873182717 L 378.46543473522 733.93073182717 L 360.60943473522 733.93073182717 Z M 449.88943473522 720.01073182717 L 449.88943473522 733.93073182717 L 408.41743473522 733.93073182717 L 408.41743473522 673.73873182717 L 449.02543473522 673.73873182717 L 449.02543473522 687.17873182717 L 423.29743473522 687.17873182717 L 423.29743473522 697.16273182717 L 445.47343473522 697.16273182717 L 445.47343473522 709.64273182717 L 423.29743473522 709.64273182717 L 423.29743473522 720.01073182717 L 449.88943473522 720.01073182717 Z M 513.63343473522 673.73873182717 L 513.63343473522 733.93073182717 L 499.42543473522 733.93073182717 L 475.61743473522 699.17873182717 L 475.61743473522 733.93073182717 L 461.69743473522 733.93073182717 L 461.69743473522 673.73873182717 L 475.80943473522 673.73873182717 L 499.71343473522 709.83473182717 L 499.71343473522 673.73873182717 L 513.63343473522 673.73873182717 Z M 571.90543473522 673.73873182717 L 571.90543473522 687.17873182717 L 555.48943473522 687.17873182717 L 555.48943473522 733.93073182717 L 540.60943473522 733.93073182717 L 540.60943473522 687.17873182717 L 524.19343473522 687.17873182717 L 524.19343473522 673.73873182717 L 571.90543473522 673.73873182717 Z M 618.75343473522 708.58673182717 L 618.75343473522 673.73873182717 L 633.63343473522 673.73873182717 L 633.63343473522 708.58673182717 C 633.63343473522 717.35473182717 631.48943473522 723.93073182717 627.20143473522 728.31473182717 C 622.91343473522 732.69873182717 616.48143473522 734.89073182717 607.90543473522 734.89073182717 C 598.88143473522 734.89073182717 592.30543473522 732.81073182717 588.17743473522 728.65073182717 C 584.04943473522 724.49073182717 581.98543473522 717.80273182717 581.98543473522 708.58673182717 L 581.98543473522 673.73873182717 L 596.86543473522 673.73873182717 L 596.86543473522 708.58673182717 C 596.86543473522 713.45073182717 597.61743473522 716.73073182717 599.12143473522 718.42673182717 C 600.62543473522 720.12273182717 603.55343473522 720.97073182717 607.90543473522 720.97073182717 C 612.19343473522 720.97073182717 615.07343473522 720.12273182717 616.54543473522 718.42673182717 C 618.01743473522 716.73073182717 618.75343473522 713.45073182717 618.75343473522 708.58673182717 Z M 662.04943473522 714.53873182717 L 662.04943473522 733.93073182717 L 647.16943473522 733.93073182717 L 647.16943473522 673.73873182717 L 669.15343473522 673.73873182717 C 678.43343473522 673.73873182717 685.02543473522 675.30673182717 688.92943473522 678.44273182717 C 692.83343473522 681.57873182717 694.78543473522 686.79473182717 694.78543473522 694.09073182717 C 694.78543473522 699.01873182717 693.74543473522 703.03473182717 691.66543473522 706.13873182717 C 689.58543473522 709.24273182717 686.43343473522 711.49873182717 682.20943473522 712.90673182717 L 696.89743473522 733.93073182717 L 679.04143473522 733.93073182717 L 666.56143473522 714.53873182717 L 662.04943473522 714.53873182717 Z M 679.71343473522 694.09073182717 C 679.71343473522 691.53073182717 678.94543473522 689.73873182717 677.40943473522 688.71473182717 C 675.87343473522 687.69073182717 673.12143473522 687.17873182717 669.15343473522 687.17873182717 L 662.04943473522 687.17873182717 L 662.04943473522 702.53873182717 L 669.15343473522 702.53873182717 C 673.12143473522 702.53873182717 675.87343473522 701.91473182717 677.40943473522 700.66673182717 C 678.94543473522 699.41873182717 679.71343473522 697.22673182717 679.71343473522 694.09073182717 Z M 748.83343473522 720.01073182717 L 748.83343473522 733.93073182717 L 707.36143473522 733.93073182717 L 707.36143473522 673.73873182717 L 747.96943473522 673.73873182717 L 747.96943473522 687.17873182717 L 722.24143473522 687.17873182717 L 722.24143473522 697.16273182717 L 744.41743473522 697.16273182717 L 744.41743473522 709.64273182717 L 722.24143473522 709.64273182717 L 722.24143473522 720.01073182717 L 748.83343473522 720.01073182717 Z M 788.67343473522 733.93073182717 L 773.02543473522 733.93073182717 L 795.29743473522 673.73873182717 L 810.75343473522 673.73873182717 L 832.44943473522 733.93073182717 L 816.89743473522 733.93073182717 L 813.72943473522 723.85073182717 L 791.84143473522 723.85073182717 L 788.67343473522 733.93073182717 Z M 802.68943473522 688.52273182717 C 802.17743473522 690.31473182717 801.61743473522 692.21873182717 801.00943473522 694.23473182717 C 800.40143473522 696.25073182717 799.39343473522 699.53073182717 797.98543473522 704.07473182717 L 795.48943473522 712.04273182717 L 809.98543473522 712.04273182717 L 807.48943473522 704.07473182717 C 806.65743473522 701.64273182717 805.82543473522 699.06673182717 804.99343473522 696.34673182717 C 804.16143473522 693.62673182717 803.39343473522 691.01873182717 802.68943473522 688.52273182717 Z M 849.34543473522 733.93073182717 L 833.50543473522 673.73873182717 L 849.63343473522 673.73873182717 L 855.96943473522 703.49873182717 C 856.22543473522 704.52273182717 856.49743473522 705.89873182717 856.78543473522 707.62673182717 C 857.07343473522 709.35473182717 857.56943473522 712.68273182717 858.27343473522 717.61073182717 C 858.46543473522 716.39473182717 858.83343473522 714.05873182717 859.37743473522 710.60273182717 C 859.92143473522 707.14673182717 860.32143473522 704.81073182717 860.57743473522 703.59473182717 L 866.72143473522 673.73873182717 L 882.27343473522 673.73873182717 L 888.60943473522 703.49873182717 C 888.86543473522 704.52273182717 889.13743473522 705.89873182717 889.42543473522 707.62673182717 C 889.71343473522 709.35473182717 890.20943473522 712.68273182717 890.91343473522 717.61073182717 C 891.10543473522 716.39473182717 891.47343473522 714.05873182717 892.01743473522 710.60273182717 C 892.56143473522 707.14673182717 892.96143473522 704.81073182717 893.21743473522 703.59473182717 L 899.36143473522 673.73873182717 L 915.00943473522 673.73873182717 L 899.26543473522 733.93073182717 L 882.08143473522 733.93073182717 L 878.24143473522 715.69073182717 C 877.60143473522 712.61873182717 876.96143473522 709.38673182717 876.32143473522 705.99473182717 C 875.68143473522 702.60273182717 875.00943473522 698.85873182717 874.30543473522 694.76273182717 C 873.28143473522 700.45873182717 872.48143473522 704.74673182717 871.90543473522 707.62673182717 C 871.32943473522 710.50673182717 870.78543473522 713.19473182717 870.27343473522 715.69073182717 L 866.43343473522 733.93073182717 L 849.34543473522 733.93073182717 Z M 931.61743473522 733.93073182717 L 915.96943473522 733.93073182717 L 938.24143473522 673.73873182717 L 953.69743473522 673.73873182717 L 975.39343473522 733.93073182717 L 959.84143473522 733.93073182717 L 956.67343473522 723.85073182717 L 934.78543473522 723.85073182717 L 931.61743473522 733.93073182717 Z M 945.63343473522 688.52273182717 C 945.12143473522 690.31473182717 944.56143473522 692.21873182717 943.95343473522 694.23473182717 C 943.34543473522 696.25073182717 942.33743473522 699.53073182717 940.92943473522 704.07473182717 L 938.43343473522 712.04273182717 L 952.92943473522 712.04273182717 L 950.43343473522 704.07473182717 C 949.60143473522 701.64273182717 948.76943473522 699.06673182717 947.93743473522 696.34673182717 C 947.10543473522 693.62673182717 946.33743473522 691.01873182717 945.63343473522 688.52273182717 Z M 999.58543473522 673.73873182717 L 999.58543473522 733.93073182717 L 984.70543473522 733.93073182717 L 984.70543473522 673.73873182717 L 999.58543473522 673.73873182717 Z M 1057.85743473522 673.73873182717 L 1057.85743473522 687.17873182717 L 1041.44143473522 687.17873182717 L 1041.44143473522 733.93073182717 L 1026.56143473522 733.93073182717 L 1026.56143473522 687.17873182717 L 1010.14543473522 687.17873182717 L 1010.14543473522 673.73873182717 L 1057.85743473522 673.73873182717 Z M 1090.40143473522 711.46673182717 L 1078.20943473522 708.58673182717 C 1073.34543473522 707.43473182717 1070.03343473522 705.67473182717 1068.27343473522 703.30673182717 C 1066.51343473522 700.93873182717 1065.63343473522 697.54673182717 1065.63343473522 693.13073182717 C 1065.63343473522 686.15473182717 1067.47343473522 681.01873182717 1071.15343473522 677.72273182717 C 1074.83343473522 674.42673182717 1080.54543473522 672.77873182717 1088.28943473522 672.77873182717 C 1091.48943473522 672.77873182717 1094.33743473522 672.90673182717 1096.83343473522 673.16273182717 C 1099.32943473522 673.41873182717 1101.63343473522 673.86673182717 1103.74543473522 674.50673182717 L 1103.74543473522 687.85073182717 C 1098.88143473522 687.01873182717 1095.53743473522 686.53873182717 1093.71343473522 686.41073182717 C 1091.88943473522 686.28273182717 1089.98543473522 686.21873182717 1088.00143473522 686.21873182717 C 1085.31343473522 686.21873182717 1083.36143473522 686.66673182717 1082.14543473522 687.56273182717 C 1080.92943473522 688.45873182717 1080.32143473522 689.96273182717 1080.32143473522 692.07473182717 C 1080.32143473522 693.09873182717 1080.51343473522 693.88273182717 1080.89743473522 694.42673182717 C 1081.28143473522 694.97073182717 1082.01743473522 695.37073182717 1083.10543473522 695.62673182717 L 1094.62543473522 698.31473182717 C 1097.95343473522 699.08273182717 1100.35343473522 699.83473182717 1101.82543473522 700.57073182717 C 1103.29743473522 701.30673182717 1104.48143473522 702.25073182717 1105.37743473522 703.40273182717 C 1106.40143473522 704.61873182717 1107.15343473522 706.18673182717 1107.63343473522 708.10673182717 C 1108.11343473522 710.02673182717 1108.35343473522 712.36273182717 1108.35343473522 715.11473182717 C 1108.35343473522 722.09073182717 1106.49743473522 727.13073182717 1102.78543473522 730.23473182717 C 1099.07343473522 733.33873182717 1093.31343473522 734.89073182717 1085.50543473522 734.89073182717 C 1081.53743473522 734.89073182717 1077.76143473522 734.65073182717 1074.17743473522 734.17073182717 C 1070.59343473522 733.69073182717 1067.80943473522 733.09873182717 1065.82543473522 732.39473182717 L 1065.82543473522 718.28273182717 C 1068.38543473522 719.11473182717 1071.42543473522 719.77073182717 1074.94543473522 720.25073182717 C 1078.46543473522 720.73073182717 1081.98543473522 720.97073182717 1085.50543473522 720.97073182717 C 1088.32143473522 720.97073182717 1090.27343473522 720.61873182717 1091.36143473522 719.91473182717 C 1092.44943473522 719.21073182717 1092.99343473522 717.80273182717 1092.99343473522 715.69073182717 C 1092.99343473522 714.34673182717 1092.81743473522 713.37073182717 1092.46543473522 712.76273182717 C 1092.11343473522 712.15473182717 1091.42543473522 711.72273182717 1090.40143473522 711.46673182717 Z"/></svg>